<svg width="20" height="20" viewBox="0 0 20 20" fill="none" xmlns="http://www.w3.org/2000/svg">
<path d="M15.2053 13.2302C14.5519 12.5851 13.7362 12.5851 13.087 13.2302C12.5917 13.7213 12.0964 14.2124 11.6095 14.7118C11.4763 14.8491 11.364 14.8782 11.2017 14.7867C10.8812 14.6119 10.5399 14.4704 10.232 14.2789C8.79613 13.3758 7.59337 12.2147 6.52794 10.9079C5.99939 10.2586 5.52911 9.56361 5.20032 8.7812C5.13374 8.62305 5.14622 8.519 5.27524 8.38999C5.77049 7.91138 6.25326 7.42028 6.74019 6.92919C7.41857 6.24666 7.41857 5.44759 6.73603 4.76089C6.34898 4.36968 5.96194 3.9868 5.57489 3.59559C5.17535 3.19605 4.77998 2.79236 4.37629 2.39699C3.72288 1.76023 2.90717 1.76023 2.25792 2.40115C1.75851 2.89224 1.2799 3.39582 0.772157 3.87859C0.301873 4.3239 0.0646494 4.8691 0.0147076 5.50585C-0.0643668 6.54214 0.189504 7.52017 0.547419 8.47322C1.2799 10.4459 2.39526 12.198 3.74785 13.8045C5.57489 15.977 7.75568 17.6958 10.3069 18.936C11.4555 19.4937 12.6458 19.9223 13.9401 19.9931C14.8308 20.043 15.6049 19.8183 16.225 19.1233C16.6495 18.6488 17.1281 18.216 17.5776 17.7624C18.2434 17.0882 18.2476 16.2724 17.5859 15.6066C16.7951 14.8117 16.0002 14.0209 15.2053 13.2302Z" fill="#333333"/>
<path d="M14.4104 9.91343L15.9461 9.65123C15.7047 8.24038 15.0389 6.9627 14.0275 5.94722C12.9579 4.87763 11.6054 4.20342 10.1154 3.99533L9.89902 5.53936C11.0518 5.70167 12.1006 6.2219 12.9288 7.0501C13.7112 7.83252 14.2231 8.82303 14.4104 9.91343Z" fill="#333333"/>
<path d="M16.8118 3.23789C15.0388 1.46496 12.7956 0.34543 10.3193 0L10.1029 1.54403C12.2421 1.84368 14.1815 2.81338 15.7131 4.34077C17.1655 5.79324 18.1186 7.6286 18.464 9.64708L19.9997 9.38488C19.596 7.04595 18.4931 4.92342 16.8118 3.23789Z" fill="#333333"/>
</svg>
